<?xml version="1.0" standalone="no"?>
<!DOCTYPE svg PUBLIC "-//W3C//DTD SVG 20010904//EN"
 "http://www.w3.org/TR/2001/REC-SVG-20010904/DTD/svg10.dtd">
<svg version="1.0" xmlns="http://www.w3.org/2000/svg"
 width="1024.000000pt" height="1024.000000pt" viewBox="0 0 1024.000000 1024.000000"
 preserveAspectRatio="xMidYMid meet">

<g transform="translate(0.000000,1024.000000) scale(0.100000,-0.100000)"
fill="#000000" stroke="none">
<path d="M6550 7630 c-105 -36 -157 -138 -132 -259 39 -187 204 -365 354 -379
114 -11 280 50 373 139 136 128 152 308 34 386 -36 24 -55 29 -124 31 -72 4
-88 1 -133 -22 -29 -15 -52 -31 -52 -36 0 -22 -19 -8 -25 19 -11 50 -70 109
-127 126 -67 19 -101 19 -168 -5z m-10 -420 c-10 -6 -11 -10 -2 -10 6 0 12
-11 12 -25 0 -14 -4 -25 -8 -25 -15 0 -32 24 -32 47 0 17 6 23 23 23 18 0 19
-2 7 -10z"/>
<path d="M5219 7513 c-6 -16 -25 -97 -42 -180 l-31 -153 -45 27 c-197 116
-452 205 -626 220 -63 5 -72 3 -89 -16 -17 -18 -18 -31 -13 -108 4 -49 15
-121 26 -162 l20 -73 -27 6 c-15 3 -85 15 -157 26 -203 31 -527 24 -572 -12
-31 -25 -3 -86 98 -215 l48 -62 -57 -6 c-117 -12 -241 -39 -362 -77 -128 -41
-326 -129 -369 -165 l-23 -19 48 -40 c27 -23 93 -71 146 -109 l97 -69 -62 -21
c-187 -66 -333 -137 -466 -227 -137 -92 -145 -107 -83 -158 36 -30 249 -140
271 -140 23 0 9 -16 -38 -42 -125 -69 -487 -405 -479 -445 5 -25 96 -55 246
-83 l122 -22 -104 -107 c-136 -138 -181 -192 -262 -314 -127 -190 -119 -204
107 -214 l125 -6 -52 -78 c-111 -165 -208 -376 -241 -520 -21 -95 -13 -104 81
-95 60 6 137 21 208 42 15 4 13 -5 -11 -59 -59 -130 -125 -361 -144 -502 -3
-16 -3 0 -1 37 2 36 1 73 -2 81 -6 16 -44 12 -44 -5 0 -5 -9 -4 -21 2 -11 7
-18 17 -16 24 6 14 -22 18 -38 5 -6 -4 -18 -7 -27 -5 -26 3 -78 54 -78 75 0
12 -7 18 -17 17 -10 0 -17 4 -16 11 1 6 -5 17 -14 25 -14 11 -16 11 -8 -2 8
-13 7 -13 -8 -1 -18 14 -23 26 -8 16 5 -3 12 -1 16 5 3 5 0 10 -8 10 -18 0
-59 44 -50 55 5 4 -2 5 -15 2 -14 -3 -25 0 -28 7 -6 15 -34 17 -34 3 0 -5 -8
-3 -17 4 -11 10 -14 10 -9 2 4 -7 3 -13 -2 -13 -6 0 -13 8 -16 17 -6 15 -8 15
-16 3 -7 -10 -10 4 -12 45 -1 59 -1 59 -8 -20 -16 -190 30 -495 106 -707 110
-305 344 -566 632 -704 299 -144 609 -197 1217 -210 l310 -7 -25 30 c-148 180
-185 235 -250 368 -83 171 -116 305 -103 428 l6 58 -45 47 c-100 105 -176 226
-218 346 -49 142 -47 320 5 502 45 156 157 351 267 464 l53 55 -76 75 c-136
135 -199 286 -199 479 0 188 55 421 137 585 30 60 33 71 20 80 -8 6 -43 31
-76 55 -234 168 -283 481 -101 644 129 116 310 96 471 -52 63 -57 87 -87 143
-178 l26 -43 68 34 c177 91 441 116 652 61 92 -23 233 -93 313 -153 l68 -52
75 79 c82 88 171 149 273 189 56 22 82 26 176 26 102 0 117 -2 215 -37 58 -21
110 -38 116 -40 6 -1 46 43 90 98 88 109 146 162 221 199 112 56 194 57 285 3
140 -84 191 -299 110 -471 -35 -74 -127 -179 -198 -223 l-42 -27 38 -76 c72
-139 144 -377 163 -537 l5 -42 -71 -42 c-38 -23 -110 -81 -159 -128 -66 -65
-92 -84 -104 -78 -8 5 -49 11 -90 14 -75 6 -75 6 -90 42 -46 111 -176 151
-292 92 -67 -34 -130 -130 -147 -222 -6 -33 -11 -37 -60 -53 -64 -20 -119 -75
-135 -136 -11 -42 -12 -42 -48 -35 -224 43 -394 30 -541 -41 -81 -40 -175
-126 -204 -187 -22 -45 -23 -46 -195 -108 -75 -27 -143 -57 -151 -67 -10 -13
-12 -42 -7 -127 4 -60 9 -123 13 -139 6 -28 5 -28 -28 -21 -58 11 -210 92
-312 165 -53 39 -101 69 -106 66 -13 -8 3 -75 28 -125 68 -132 227 -216 518
-275 188 -39 238 -70 289 -181 l24 -50 -109 -5 c-102 -5 -149 -19 -136 -40 2
-4 37 -10 77 -13 73 -6 132 -21 156 -40 18 -14 15 -65 -5 -76 -10 -5 -65 -18
-122 -30 -58 -12 -106 -23 -109 -25 -16 -17 21 -26 103 -26 52 0 97 -4 100
-10 3 -5 -12 -27 -34 -48 -29 -28 -62 -46 -113 -63 -100 -32 -282 -32 -408 0
-212 55 -427 201 -555 379 -44 62 -60 66 -53 14 15 -106 95 -248 203 -357 66
-68 96 -89 175 -128 52 -25 137 -58 188 -73 l92 -28 0 -92 c0 -135 22 -174
166 -282 123 -94 366 -221 519 -271 100 -33 274 -56 500 -67 313 -14 898 43
1189 117 43 11 80 18 83 15 3 -2 0 -28 -6 -56 -17 -79 -18 -79 37 -69 418 76
738 254 940 524 64 85 177 307 168 330 -3 9 -2 13 4 10 6 -3 10 -2 10 4 0 5 3
18 6 28 5 15 4 15 -5 3 -9 -13 -11 -12 -11 5 0 12 -3 16 -8 9 -4 -6 -15 -10
-24 -8 -21 3 -24 -12 -5 -19 7 -3 5 -6 -5 -6 -10 -1 -18 5 -18 12 0 7 -3 8 -8
2 -12 -17 -47 -41 -38 -27 4 7 1 12 -8 12 -9 0 -16 -6 -16 -12 0 -8 -3 -9 -8
-3 -11 16 -64 18 -73 3 -7 -10 -9 -10 -9 0 0 7 -4 10 -10 7 -5 -3 -15 5 -21
19 -25 55 -34 36 -31 -66 3 -84 1 -102 -14 -119 -9 -10 -24 -19 -33 -19 -10 0
-7 5 9 13 24 12 25 16 24 102 -1 50 -11 137 -23 195 -21 106 -76 311 -91 340
-7 13 10 10 78 -12 99 -32 130 -35 139 -11 24 62 -111 401 -244 612 -19 29
-33 55 -31 56 2 2 53 7 113 12 l110 8 -3 35 c-1 19 -22 76 -46 125 -43 88
-227 377 -269 422 -11 13 -19 25 -16 27 2 2 62 11 133 19 71 9 133 20 137 24
13 14 -16 79 -67 150 -78 109 -175 213 -291 313 -59 52 -109 97 -111 102 -2 4
6 8 18 8 32 0 219 49 252 66 15 8 28 23 28 33 0 36 -204 202 -367 299 -80 48
-84 52 -62 61 34 13 200 125 224 151 l20 22 -24 19 c-26 21 -146 61 -238 79
l-63 13 0 52 c0 68 -31 168 -71 228 -41 62 -97 109 -178 149 -36 18 -68 34
-70 35 -2 1 13 16 33 34 21 18 44 45 52 61 22 43 1 72 -68 89 -84 21 -311 16
-450 -9 -64 -12 -119 -22 -121 -22 -2 0 -7 70 -11 156 -9 197 -28 329 -52 355
-9 10 -29 19 -44 19 -43 0 -178 -72 -289 -155 -78 -58 -106 -74 -112 -64 -84
149 -292 363 -430 442 -60 35 -86 35 -100 0z m225 -318 c63 -73 98 -120 57
-75 -13 14 -52 58 -86 97 l-64 73 -4 -33 c-3 -24 -4 -19 -5 17 l-2 49 22 -29
c12 -16 49 -60 82 -99z m-733 24 c161 -48 398 -167 383 -191 -4 -7 -2 -8 4 -4
6 4 36 -10 67 -30 61 -41 72 -54 23 -27 -18 9 -36 16 -40 15 -5 -1 -8 3 -8 9
0 5 -4 8 -9 4 -21 -12 -96 38 -85 57 3 4 -18 19 -46 33 -27 14 -50 22 -50 18
0 -5 -4 -3 -8 3 -20 31 -274 127 -339 128 -18 1 -35 7 -38 14 -6 15 13 11 146
-29z m626 -101 c-2 -13 -4 -3 -4 22 0 25 2 35 4 23 2 -13 2 -33 0 -45z m721
-100 l-2 -93 -3 83 c-4 77 -5 83 -21 71 -13 -11 -13 -8 2 9 11 12 21 22 23 22
1 0 2 -42 1 -92z m-507 45 c13 -16 12 -17 -3 -4 -10 7 -18 15 -18 17 0 8 8 3
21 -13z m29 -43 c6 -11 8 -20 6 -20 -3 0 -10 9 -16 20 -6 11 -8 20 -6 20 3 0
10 -9 16 -20z m-1487 -57 c-18 -2 -48 -2 -65 0 -18 2 -4 4 32 4 36 0 50 -2 33
-4z m1527 -13 c6 -11 8 -20 6 -20 -3 0 -10 9 -16 20 -6 11 -8 20 -6 20 3 0 10
-9 16 -20z m-1427 3 c-7 -2 -21 -2 -30 0 -10 3 -4 5 12 5 17 0 24 -2 18 -5z
m222 -43 c107 -28 230 -69 223 -75 -2 -2 -43 10 -93 27 -49 17 -146 43 -215
59 -69 16 -102 26 -75 23 28 -3 100 -19 160 -34z m425 -77 c84 -56 129 -97
182 -168 52 -69 115 -182 106 -190 -2 -2 -32 24 -68 57 -36 33 -52 51 -36 39
16 -12 31 -20 33 -18 8 8 -10 37 -23 37 -13 0 -18 12 -15 33 0 4 -7 7 -17 7
-10 0 -13 3 -7 8 6 4 10 13 9 20 -1 6 -2 17 -3 23 0 5 -5 8 -10 4 -5 -3 -12
-1 -16 5 -4 6 -11 8 -16 5 -5 -4 -9 -2 -9 4 0 6 -16 9 -35 7 -26 -2 -34 1 -31
10 3 8 0 11 -8 8 -7 -3 -20 2 -29 10 -8 8 -17 12 -21 9 -3 -4 -6 0 -6 7 0 7
-3 11 -6 7 -3 -3 -17 5 -30 18 -20 20 -22 28 -14 49 11 30 35 33 70 9z m-145
-31 c-3 -3 -11 0 -18 7 -9 10 -8 11 6 5 10 -3 15 -9 12 -12z m225 -159 c0 -7
-78 56 -87 70 -4 6 14 -6 40 -27 26 -21 47 -40 47 -43z m719 24 c0 -8 -2 -8
-6 1 -4 10 -8 10 -21 0 -15 -12 -16 -11 -3 4 14 19 32 15 30 -5z m-688 -44
c13 -16 12 -17 -3 -4 -10 7 -18 15 -18 17 0 8 8 3 21 -13z m696 -5 c-3 -8 -6
-5 -6 6 -1 11 2 17 5 13 3 -3 4 -12 1 -19z m-976 -65 c8 -9 -5 -2 -28 17 -24
18 -43 35 -43 37 0 7 56 -35 71 -54z m1334 -38 c-8 -22 -13 -29 -10 -15 3 14
9 41 13 60 4 23 8 28 10 15 1 -11 -4 -38 -13 -60z m-424 40 c5 4 9 1 9 -4 0
-17 24 -8 38 14 12 19 12 18 6 -5 -16 -59 -65 -129 -107 -152 -16 -8 -18 -6
-12 29 4 21 13 63 22 93 12 44 17 51 25 37 5 -10 13 -15 19 -12z m-840 -72
c13 -16 12 -17 -3 -4 -10 7 -18 15 -18 17 0 8 8 3 21 -13z m-1439 -1459 c30
-16 31 -17 13 -30 -10 -8 -14 -14 -9 -14 6 0 15 5 21 11 9 9 33 -4 93 -50 l81
-61 -73 0 c-84 0 -270 24 -310 39 -14 5 -29 15 -33 20 -8 15 41 59 90 82 50
23 87 24 127 3z m3967 -27 c75 -50 129 -188 116 -294 -17 -137 -73 -242 -272
-509 l-82 -111 -78 18 c-103 25 -131 18 -200 -44 l-55 -51 -40 47 c-38 45 -42
47 -92 47 -43 0 -64 -7 -131 -46 -44 -26 -98 -57 -120 -70 -27 -16 -45 -20
-55 -14 -12 8 -11 19 9 82 35 111 100 240 193 378 230 345 416 530 588 585 69
23 170 14 219 -18z m-994 -87 c31 -12 55 -63 55 -119 0 -22 -9 -86 -20 -142
-11 -57 -18 -104 -16 -106 2 -2 24 31 49 74 25 43 58 91 74 106 36 33 100 48
109 24 6 -18 -2 -32 -110 -182 -96 -135 -175 -268 -212 -357 -15 -38 -30 -68
-34 -68 -3 0 -14 23 -24 50 -38 105 -116 200 -229 277 -29 20 -47 40 -47 52 0
49 90 110 166 113 29 1 35 6 39 27 28 150 63 222 118 246 39 17 48 18 82 5z
m-2791 -282 c-9 -30 -36 -68 -65 -93 l-24 -19 22 24 22 23 -21 19 c-12 10 -26
18 -32 19 -12 1 83 49 97 49 5 0 5 -10 1 -22z m-154 -52 c0 -2 -12 -11 -27
-20 l-28 -17 24 20 c23 21 31 25 31 17z m2316 -116 c32 -6 71 -16 87 -22 l27
-11 -27 -23 c-16 -13 -41 -26 -58 -29 -16 -3 -61 -10 -99 -15 -78 -12 -107
-25 -101 -43 8 -20 -8 -34 -49 -46 -30 -8 -43 -7 -55 2 -12 10 -14 9 -8 -5 4
-12 -2 -19 -24 -27 -29 -10 -59 -6 -59 8 0 4 22 18 50 31 27 13 48 25 46 27
-2 3 -28 -8 -58 -23 -29 -15 -69 -28 -88 -29 -19 -1 -52 -10 -72 -19 -20 -8
-44 -13 -52 -10 -37 14 60 127 156 184 86 50 255 72 384 50z m-2466 -14 c0 -2
-8 -10 -17 -17 -16 -13 -17 -12 -4 4 13 16 21 21 21 13z m150 1 c0 -2 -10 -12
-22 -23 l-23 -19 19 23 c18 21 26 27 26 19z m4006 -309 c-18 -93 -51 -192 -68
-208 -13 -12 -43 -20 -91 -25 -40 -4 -112 -20 -161 -36 -151 -50 -241 -125
-300 -248 -29 -61 -31 -74 -31 -171 0 -94 3 -111 28 -165 35 -75 105 -148 177
-185 48 -24 77 -33 185 -54 11 -2 3 -4 -17 -5 l-38 -1 46 -62 c47 -63 86 -140
125 -244 11 -29 26 -54 32 -54 23 0 35 16 40 50 4 35 4 34 5 -6 l2 -41 -87
-26 c-282 -83 -927 -197 -1373 -242 -85 -8 -238 -18 -339 -22 l-184 -6 6 56
c4 31 12 169 18 307 11 274 6 378 -33 610 -24 146 -25 146 -47 5 -7 -45 -8
-47 -10 -14 -4 103 -81 255 -165 323 -39 33 -159 96 -181 96 -6 0 -10 54 -10
142 l0 142 37 9 c34 8 40 6 95 -39 70 -57 135 -88 166 -78 12 4 40 22 61 40
22 19 48 34 59 34 10 0 43 -25 72 -56 51 -55 55 -57 94 -51 26 3 64 21 106 52
75 53 87 53 134 -5 43 -54 83 -54 191 0 58 29 92 40 125 40 60 0 78 -10 116
-68 47 -69 80 -102 104 -102 11 0 86 38 165 85 79 47 151 85 160 85 9 0 39
-18 69 -40 79 -60 102 -56 213 32 l34 28 52 -20 c102 -39 138 -27 216 73 40
51 73 72 133 86 71 17 76 15 69 -21z m-1689 -14 c-3 -3 -12 -4 -19 -1 -8 3 -5
6 6 6 11 1 17 -2 13 -5z m1772 -284 c68 -34 121 -115 136 -206 8 -49 -7 -139
-32 -192 -26 -57 -120 -143 -195 -180 -105 -51 -269 -69 -346 -36 -34 14 -102
70 -102 84 0 4 26 11 58 17 73 14 135 40 127 53 -3 5 -43 10 -89 10 -90 0
-108 9 -121 61 -6 22 -2 28 27 42 18 8 70 23 116 33 125 27 94 55 -50 46 -56
-3 -78 -2 -78 7 0 24 39 87 77 122 55 53 111 78 261 115 74 18 136 35 140 38
10 11 32 6 71 -14z m-2192 -572 c-3 -8 -6 -5 -6 6 -1 11 2 17 5 13 3 -3 4 -12
1 -19z m-2730 -30 c-3 -7 -5 -2 -5 12 0 14 2 19 5 13 2 -7 2 -19 0 -25z m2720
-30 c-3 -8 -6 -5 -6 6 -1 11 2 17 5 13 3 -3 4 -12 1 -19z m-2440 -50 c-3 -8
-6 -5 -6 6 -1 11 2 17 5 13 3 -3 4 -12 1 -19z m2414 -21 c-10 -9 -11 -8 -5 6
3 10 9 15 12 12 3 -3 0 -11 -7 -18z m-67 -102 c-22 -30 -88 -84 -131 -109 -30
-17 -9 3 45 42 32 23 68 56 81 72 12 17 24 30 27 30 3 0 -7 -16 -22 -35z
m2073 13 c-3 -8 -6 -5 -6 6 -1 11 2 17 5 13 3 -3 4 -12 1 -19z m-34 5 c-13 -2
-33 -2 -45 0 -13 2 -3 4 22 4 25 0 35 -2 23 -4z m517 -128 c30 -20 47 -35 37
-31 -10 3 -25 6 -32 6 -7 0 -29 16 -48 35 -19 19 -38 35 -41 35 -3 0 -6 -39
-7 -87 -1 -49 -4 -115 -8 -148 -5 -41 -7 -7 -7 107 l1 167 25 -23 c14 -13 50
-40 80 -61z m-433 -67 c-3 -8 -6 -5 -6 6 -1 11 2 17 5 13 3 -3 4 -12 1 -19z
m-2418 5 c-12 -3 -18 -21 -22 -71 -3 -37 -9 -85 -12 -107 -6 -37 -4 -41 23
-57 57 -34 59 -28 36 109 l-6 31 75 -23 c41 -13 117 -31 168 -40 52 -9 96 -19
99 -22 3 -3 5 -63 5 -134 0 -151 17 -144 -153 -63 -108 51 -244 133 -258 156
-4 5 -1 59 7 119 11 100 14 109 33 108 15 -1 16 -3 5 -6z m2428 -60 c-3 -10
-5 -4 -5 12 0 17 2 24 5 18 2 -7 2 -21 0 -30z m310 -175 c-3 -7 -5 -2 -5 12 0
14 2 19 5 13 2 -7 2 -19 0 -25z"/>
<path d="M4965 6710 c10 -11 20 -20 23 -20 3 0 -3 9 -13 20 -10 11 -20 20 -23
20 -3 0 3 -9 13 -20z"/>
<path d="M5026 6621 c-3 -5 6 -16 20 -26 25 -16 25 -16 15 4 -14 25 -28 34
-35 22z"/>
<path d="M5549 6443 c-13 -16 -12 -17 4 -4 9 7 17 15 17 17 0 8 -8 3 -21 -13z"/>
<path d="M3210 5019 c0 -5 -4 -7 -10 -4 -5 3 -10 -3 -10 -14 0 -17 6 -21 36
-21 28 0 35 3 31 15 -4 8 -1 17 5 21 7 5 8 2 3 -6 -5 -9 -4 -11 4 -6 6 4 9 12
6 17 -8 13 -65 11 -65 -2z"/>
<path d="M3275 4990 c-3 -5 -1 -10 4 -10 6 0 11 5 11 10 0 6 -2 10 -4 10 -3 0
-8 -4 -11 -10z"/>
<path d="M6867 4775 c-50 -17 -87 -52 -87 -81 0 -30 27 -44 84 -44 85 0 141
84 84 124 -27 19 -32 19 -81 1z"/>
<path d="M6624 4496 c-33 -15 -74 -60 -74 -82 0 -8 9 -23 20 -34 37 -37 207
-21 233 21 15 24 -24 73 -73 93 -48 19 -65 19 -106 2z"/>
<path d="M6107 4560 c-31 -25 -26 -45 15 -66 41 -21 88 -10 88 20 0 25 -38 66
-62 66 -8 0 -27 -9 -41 -20z"/>
<path d="M3410 4610 c-9 -6 -10 -10 -3 -10 6 0 15 5 18 10 8 12 4 12 -15 0z"/>
<path d="M7247 3956 c-3 -8 -2 -18 3 -21 13 -8 24 15 12 27 -6 6 -11 4 -15 -6z"/>
<path d="M5154 3926 c-17 -9 -19 -16 -12 -35 6 -17 14 -22 28 -18 14 4 20 -1
23 -22 3 -21 4 -19 5 9 2 39 -7 81 -17 79 -3 -1 -15 -6 -27 -13z"/>
<path d="M6599 3543 l-24 -28 28 24 c15 14 27 26 27 28 0 8 -8 1 -31 -24z"/>
<path d="M5242 3520 c0 -14 2 -19 5 -12 2 6 2 18 0 25 -3 6 -5 1 -5 -13z"/>
<path d="M6465 3408 l-50 -53 53 50 c48 46 57 55 49 55 -1 0 -25 -24 -52 -52z"/>
<path d="M5221 3424 c0 -11 3 -14 6 -6 3 7 2 16 -1 19 -3 4 -6 -2 -5 -13z"/>
<path d="M6314 3268 l-19 -23 23 19 c12 11 22 21 22 23 0 8 -8 2 -26 -19z"/>
<path d="M6199 3173 c-13 -16 -12 -17 4 -4 9 7 17 15 17 17 0 8 -8 3 -21 -13z"/>
<path d="M6061 3080 c-59 -39 -65 -48 -13 -19 24 13 48 29 54 36 14 18 9 16
-41 -17z"/>
<path d="M5954 3014 c-18 -14 -18 -15 4 -4 12 6 22 13 22 15 0 8 -5 6 -26 -11z"/>
<path d="M5820 2950 c-9 -6 -10 -10 -3 -10 6 0 15 5 18 10 8 12 4 12 -15 0z"/>
<path d="M6585 2935 c-78 -15 -142 -36 -260 -87 -183 -79 -328 -115 -505 -124
-118 -7 -213 6 -273 35 -23 11 -43 19 -45 16 -6 -6 86 -50 157 -74 101 -35
207 -44 421 -38 274 7 478 48 645 126 96 45 132 79 116 109 -22 41 -144 59
-256 37z"/>
<path d="M5742 2918 c-29 -12 -51 -23 -48 -25 4 -5 87 27 101 39 12 11 8 10
-53 -14z"/>
<path d="M6065 5588 c-75 -26 -120 -85 -131 -170 -9 -73 7 -79 64 -26 61 58
108 78 179 78 72 0 107 -16 181 -84 71 -66 99 -71 94 -16 -6 82 -93 185 -180
214 -51 18 -162 20 -207 4z"/>
<path d="M4540 5518 c-79 -30 -160 -115 -184 -190 -20 -65 -18 -101 5 -106 8
-1 44 23 79 54 85 75 147 104 228 104 75 0 121 -18 184 -71 26 -21 51 -39 57
-39 14 0 14 63 0 111 -40 133 -212 197 -369 137z"/>
<path d="M5480 5350 c-68 -15 -167 -67 -195 -104 -82 -108 44 -206 266 -207
110 -1 178 21 231 73 74 74 55 164 -46 213 -62 30 -177 41 -256 25z m206 -84
c19 -15 19 -15 -3 -37 -18 -18 -36 -23 -101 -27 -83 -5 -122 6 -122 34 0 8 15
21 33 29 43 19 167 19 193 1z"/>
<path d="M5553 5213 c15 -2 37 -2 50 0 12 2 0 4 -28 4 -27 0 -38 -2 -22 -4z"/>
<path d="M4940 4995 c-35 -91 26 -222 124 -269 84 -40 229 -44 331 -10 89 30
187 107 170 133 -3 5 -44 -2 -91 -15 -165 -45 -300 -41 -374 10 -21 14 -51 53
-75 97 -44 81 -69 96 -85 54z"/>
<path d="M2002 3860 c0 -19 2 -27 5 -17 2 9 2 25 0 35 -3 9 -5 1 -5 -18z"/>
<path d="M2330 3501 c0 -6 4 -13 10 -16 6 -3 7 1 4 9 -7 18 -14 21 -14 7z"/>
<path d="M2511 3474 c0 -11 3 -14 6 -6 3 7 2 16 -1 19 -3 4 -6 -2 -5 -13z"/>
<path d="M8202 3365 c0 -16 2 -22 5 -12 2 9 2 23 0 30 -3 6 -5 -1 -5 -18z"/>
<path d="M8186 3284 c-3 -26 -4 -49 -2 -52 3 -2 8 17 11 43 4 25 5 48 3 51 -3
2 -8 -17 -12 -42z"/>
<path d="M8161 3174 c0 -11 3 -14 6 -6 3 7 2 16 -1 19 -3 4 -6 -2 -5 -13z"/>
</g>
</svg>
